<svg width="79" height="100" viewBox="0 0 79 100" fill="none" xmlns="http://www.w3.org/2000/svg">
  <path d="M38.2168 1.69164V65.3203C38.2154 66.4224 37.9382 67.507 37.4098 68.4775C36.8813 69.448 36.1182 70.2742 35.1883 70.8824C34.2584 71.4906 33.1907 71.862 32.0804 71.9634C30.97 72.0649 29.8515 71.8932 28.8246 71.4637L27.632 70.9607L24.4098 69.6051L13.813 65.1611L10.5868 63.8075L3.77676 60.949C2.65632 60.4782 1.7008 59.692 1.02922 58.6883C0.357643 57.6847 -0.000293734 56.5079 1.80863e-07 55.3046V31.9077C0.000527293 29.5769 0.937727 27.3417 2.60548 25.6937C4.27324 24.0457 6.53497 23.1199 8.89327 23.1199C9.34349 23.1199 9.77527 23.2967 10.0936 23.6113C10.412 23.926 10.5908 24.3527 10.5908 24.7977V51.2319C10.5901 51.4563 10.6649 51.6746 10.8034 51.8524C10.942 52.0303 11.1364 52.1575 11.3561 52.2142C11.6466 52.2893 11.9507 52.2975 12.2449 52.2383C12.5391 52.1791 12.8157 52.054 13.0534 51.8726C13.291 51.6912 13.4835 51.4584 13.6158 51.192C13.7482 50.9256 13.817 50.6328 13.817 50.336V43.2633C13.817 41.0971 14.6875 39.0196 16.2371 37.4877C17.7867 35.9558 19.8884 35.0949 22.0801 35.0944C22.6968 35.0949 23.288 35.3372 23.7241 35.7682C24.1601 36.1991 24.4053 36.7835 24.4058 37.393V54.8134C24.4051 55.0378 24.4799 55.2562 24.6184 55.434C24.7569 55.6118 24.9514 55.7391 25.1711 55.7957C25.4616 55.8708 25.7657 55.8791 26.0599 55.8199C26.3541 55.7606 26.6307 55.6355 26.8684 55.4541C27.106 55.2727 27.2984 55.0399 27.4308 54.7735C27.5632 54.5071 27.632 54.2143 27.632 53.9175V12.393C27.6317 9.77872 28.4103 7.22224 29.8706 5.04247C31.3309 2.8627 33.4082 1.15613 35.8434 0.135648C36.1031 0.0258587 36.3864 -0.0183744 36.6677 0.00693053C36.949 0.0322354 37.2196 0.126284 37.455 0.28061C37.6904 0.434937 37.8832 0.644697 38.0162 0.891009C38.1492 1.13732 38.2182 1.41245 38.2168 1.69164Z" fill="#E02329"/>
  <path d="M77.996 32.8096V40.1456C77.9967 40.5288 77.8556 40.8991 77.5993 41.1867C77.3431 41.4743 76.9893 41.6595 76.6046 41.7074L56.6733 45.5463C56.5807 45.5581 56.4867 45.5502 56.3975 45.5231C56.3083 45.4961 56.2259 45.4506 56.1559 45.3896C56.086 45.3286 56.0299 45.2535 55.9916 45.1694C55.9533 45.0854 55.9336 44.9942 55.9338 44.9019V28.6367C55.9339 28.5447 55.9538 28.4537 55.9923 28.3698C56.0307 28.286 56.0867 28.2112 56.1567 28.1504C56.2266 28.0896 56.3089 28.0443 56.398 28.0173C56.487 27.9904 56.5809 27.9826 56.6733 27.9943L76.6026 31.2379C76.9894 31.2856 77.345 31.472 77.6019 31.7617C77.8588 32.0515 77.999 32.4244 77.996 32.8096Z" fill="#E02329"/>
  <path d="M74.9547 48.5107C77.9662 48.0864 78 49.5854 78 51.2023V55.7425C78 55.8152 78 55.8879 78 55.9587C77.9595 57.0026 77.6191 58.0135 77.0185 58.8732C76.418 59.7329 75.5822 60.4059 74.6089 60.8133L57.2398 68.1021L55.8841 68.662L52.7037 69.9763L48.6606 71.6738C47.6893 72.0815 46.6309 72.245 45.5801 72.1496C44.5293 72.0543 43.5188 71.7031 42.6388 71.1275C41.7589 70.5518 41.037 69.7696 40.5376 68.8509C40.0383 67.9321 39.777 66.9053 39.7772 65.8624V1.73278C39.7771 1.4483 39.8481 1.1682 39.984 0.917426C40.1198 0.66665 40.3164 0.452982 40.556 0.295453C40.7957 0.137925 41.0711 0.0414257 41.3576 0.014551C41.6441 -0.0123236 41.933 0.0312606 42.1983 0.141422C45.31 1.42712 47.9675 3.59384 49.8361 6.36887C51.7047 9.14391 52.701 12.4033 52.6997 15.7367V54.5422C52.6997 54.7026 52.7371 54.8609 52.8088 55.0048C52.8806 55.1487 52.9848 55.2744 53.1135 55.3722C53.2422 55.47 53.3919 55.5372 53.5511 55.5687C53.7103 55.6002 53.8746 55.5952 54.0315 55.5539L55.8801 55.0706L56.7289 54.8486L58.7982 54.3084L70.5359 51.2592C71.1525 51.1065 71.6951 50.7441 72.0685 50.2357C72.6552 49.4083 73.5287 48.8225 74.5234 48.5893L74.6943 48.552L74.8693 48.5225H74.909L74.9547 48.5107Z" fill="#ED5E21"/>
  <path d="M74.8792 48.5266L74.7043 48.5561C74.75 48.5443 74.7977 48.5384 74.8454 48.5305L74.8792 48.5266Z" fill="black"/>
  <path d="M78 55.7427V55.9568C77.998 55.8881 78 55.8154 78 55.7427Z" fill="black"/>
  <path d="M77.996 18.5875V23.8075C77.9662 25.2319 77.674 26.4185 74.9528 26.0354H74.919H74.8792L74.7043 26.006L74.5333 25.9686L74.432 25.9431C73.7135 25.757 73.0586 25.3839 72.5356 24.8626C72.3892 24.7294 72.2561 24.5827 72.1381 24.4244C71.7614 23.906 71.2163 23.5308 70.5936 23.3616L56.8104 19.7486H56.7985C56.2757 19.6072 56.0988 19.0944 56.0988 18.5698C56.0988 14.7958 56.0471 13.3655 55.4309 10.8763C55.4309 10.8763 54.1647 6.94705 52.0358 4.39303C51.8489 4.16709 52.163 3.84686 52.4334 3.96081L74.585 13.7801C75.5644 14.1674 76.4084 14.8283 77.0138 15.6821C77.6192 16.5359 77.9598 17.5455 77.9941 18.5875H77.996Z" fill="#E02329"/>
  <path d="M67 99.8603V82H77.9059V83.9186H69.1882V89.9534H77.3412V91.872H69.1882V97.9417H78.0471V99.8603H67Z" fill="#ED5E21"/>
  <path d="M48.5533 100V82.1396H50.7415V98.0814H59.1415V100H48.5533Z" fill="#ED5E21"/>
  <path d="M29.7032 100V82.1396H40.6091V84.0582H31.8915V90.0931H40.0444V92.0117H31.8915V98.0814H40.7503V100H29.7032Z" fill="#E02329"/>
  <path d="M4.94118 99.8603L0 82H2.22353L6.00001 96.5464H6.17648L10.0235 82H12.4941L16.3412 96.5464H16.5177L20.2941 82H22.5177L17.5765 99.8603H15.3177L11.3294 85.6279H11.1883L7.20001 99.8603H4.94118Z" fill="#E02329"/>
</svg>
